<?xml version="1.0" encoding="UTF-8"?>
<svg id="Layer_2" data-name="Layer 2" xmlns="http://www.w3.org/2000/svg" xmlns:xlink="http://www.w3.org/1999/xlink" viewBox="0 0 183.77 202.86">
  <defs>
    <style>
      .cls-1 {
        fill: url(#linear-gradient);
      }

      .cls-1, .cls-2, .cls-3, .cls-4, .cls-5, .cls-6, .cls-7, .cls-8, .cls-9, .cls-10, .cls-11, .cls-12, .cls-13, .cls-14, .cls-15 {
        stroke-width: 0px;
      }

      .cls-2 {
        fill: #8db1e5;
      }

      .cls-3 {
        fill: #153e5b;
      }

      .cls-4 {
        fill: #d2e3fa;
      }

      .cls-5 {
        fill: #1c3756;
      }

      .cls-6 {
        fill: #0c2649;
      }

      .cls-7 {
        fill: #335e8a;
      }

      .cls-8 {
        fill: #f9fafd;
      }

      .cls-9 {
        fill: #739ecf;
      }

      .cls-10 {
        fill: #071b36;
      }

      .cls-11 {
        fill: #15498c;
      }

      .cls-12 {
        fill: #1a4576;
      }

      .cls-13 {
        fill: #5c8abe;
      }

      .cls-14 {
        fill: #4871a5;
      }

      .cls-15 {
        fill: #1f599f;
      }
    </style>
    <linearGradient id="linear-gradient" x1="163.91" y1="-166.53" x2="142.67" y2="-203.96" gradientTransform="translate(0 -22.47) scale(1 -1)" gradientUnits="userSpaceOnUse">
      <stop offset="0" stop-color="#1d3b60"/>
      <stop offset="1" stop-color="#15263e"/>
    </linearGradient>
  </defs>
  <g id="Layer_1-2" data-name="Layer 1">
    <g>
      <g>
        <path class="cls-8" d="M4.61,198.6c58.08.29,116.16.58,174.24.38l.57-.76c.81.42,1.02.51,1.9.76.28.08,3.16-.58,2.29,2.48-.42,1.46-6.85.9-9.14.95-56.55,1.4-113.29-1.05-169.86,0-1.84.12-5.01-.78-4.57-3.05,1.66-.21,1.79-.78,4.57-.76Z"/>
        <path class="cls-10" d="M148.19,136.14l.76,54.27c.45.63,7.61.17,8.76.19,3.02.05,13.3-.26,14.28,0,.14.04,1.69,1.56,2.09,1.9.65.55,3.3,4.65,5.33,5.71l-.57.76c-58.08.2-116.16-.09-174.24-.38,2.42-2.65,4.71-5.45,7.24-8,11.1-.15,22.22.2,33.32,0,.31,0,.15-.76.19-.76,4.65-.08,9.4.05,14.09,0,.04,0-.12.77.19.76,4.32-.11,2.66-1.38,2.86-12.57l1.71,1.52c4.11,1.24.61-10.61,2.86-12.95.07,8,.13,16,.19,23.99,15.11-.13,30.21-.25,45.32-.38.19-11.43.38-22.85.57-34.28,1.25,1.53,1.24,3.31,3.05,4.38-1.14,3.3.7,2.31.76,2.67.71,4.26-1.43,20.65,1.71,21.9,3.89-.41,4.33,1.08,4.57,1.14.96.27,2.05-3.53,1.71,4.38l.76-.95.57,1.14c6.41-.19,12.82-.38,19.23-.57-.14-17.83.19-35.68,0-53.51.83-.67,1.79-.23,2.67-.38l.02.02Z"/>
      </g>
      <path class="cls-9" d="M116.96,8.56c-.49,5.86-1.67,11.68-2.29,17.52-.11,1.05-.38.72-.38.76-16.86,7.89-33.87,24.91-44.56,40.18l.95.57c5.84-1.14,29.39-7.89,32.94-7.62v4.57c-4.47,2.55-34.86,7.65-36.37,8.76-.89.65-.49,19.74,0,21.71,6.23-1.36,33.85-7.73,36.75-7.62v4.95c-3.25-.23-29.82,6.56-36.75,7.24-.04,5.84-.43,11.69-.57,17.52h-.38c-1.39-.46-2.77-.79-4.19-1.14,1.62-13.39-1.22-34.51,0-46.65,2.18-21.79,38.51-56.21,54.84-60.75h0Z"/>
      <path class="cls-1" d="M157.71,190.6c-1.15-.02-8.31.44-8.76-.19l-.76-54.27c.35-.06.41-.31.76-.38,1.14-.24,7.97-1.92,8.38-1.33.13,18.73.25,37.45.38,56.18h0Z"/>
      <path class="cls-6" d="M116.2,136.9c.06,3.07.07,20.85.38,21.9.11.38.91,0,1.14.38,1.03,1.71,1.22,2.98,4.38,2.48,5.33-.86,1.23-10.62,3.62-12.95.07,13.58-.05,27.17,0,40.75l-.76.95c.34-7.9-.75-4.11-1.71-4.38-.24-.07-.68-1.56-4.57-1.14-3.14-1.25-1-17.64-1.71-21.9-.06-.36-1.9.63-.76-2.67-1.81-1.07-1.8-2.85-3.05-4.38-1.43-1.76-9.6-3.26-12.19-3.43l.38-8c2.05.11,11.27,3.45,11.81,2.09-.21-13.51.27-27.05,0-40.56l3.05,4.76c.12,8.69-.16,17.4,0,26.09h0Z"/>
      <path class="cls-15" d="M125.34,51.97c.14,3.54-.08,7.12,0,10.66-.25,11.87-.51,23.74-.76,35.61-.64.9-7.46-1.58-8.76-2.09-.38-19.01-.2-38.16.76-57.13.82,2.89,5.85,11.36,8.76,12.95Z"/>
      <path class="cls-6" d="M125.34,51.97c-2.91-1.59-7.94-10.06-8.76-12.95-1.17-4.12-.65-8.82-1.9-12.95.62-5.84,1.8-11.66,2.29-17.52.11-.03.97-1.28,2.29-.57,3.8,14.31,5.51,29.2,6.09,43.99h0Z"/>
      <path class="cls-5" d="M124.96,136.14c.06,3.67-.45,6.94.76,6.47.01,2.03,0,4.06,0,6.09-2.39,2.33,1.71,12.09-3.62,12.95-3.16.51-3.35-.76-4.38-2.48-.24-.39-1.03,0-1.14-.38-.31-1.05-.32-18.83-.38-21.9,4.03,1.27,5.35-.59,8.76-.76h0Z"/>
      <path class="cls-11" d="M125.72,142.62c-1.21.46-.7-2.8-.76-6.47-.06-3.68.24-24.94-.38-26.09-.74-1.37-7.65.54-8.38-.76-.55-.99-.34-10.9-.38-13.14,1.29.51,8.12,2.99,8.76,2.09.25-11.87.51-23.74.76-35.61.59,26.61.22,53.36.38,79.98Z"/>
      <g>
        <path class="cls-13" d="M148.95,107.2c-1.79,1.88.17,3.12-3.81,2.67-.06-.83.22-2.48-.19-3.05-.51-.71-15.77-5.7-16.19-6.66-.28-.65.07-9.4.19-11.24,2.47,1.6,18.69,7.62,19.42,8.38,1.04,1.06.52,7.98.57,9.9h0Z"/>
        <path class="cls-15" d="M148.95,107.2c.23,9.53-.54,19.05,0,28.56-.36.07-.41.32-.76.38-.88.15-1.84-.29-2.67.38-.09-8.52.27-18.28-.38-26.66,3.98.46,2.02-.78,3.81-2.67h0Z"/>
      </g>
      <g>
        <path class="cls-8" d="M127.63,5.13c1.46,3.41,2.18,11.5,2.67,15.61.27,2.3.58,4.55.76,6.86,1.28,16.18-.09,51.33.76,53.89.74,2.22,21.85,8.15,23.99,12.57,1.99,4.11-.07,31.6.76,33.51.14.32,4.69,1.91,5.52,2.48,5.84,3.91,4.2,9.17,4.38,15.23.07,2.41-.04,4.83,0,7.24.12,7.36-.09,14.73,0,22.09.02,2.05-.45,14.8,0,15.42.64.9,7.04-1.36,7.62,2.48-.4-.34-1.96-1.87-2.09-1.9-.98-.26-11.26.05-14.28,0-.13-18.73-.25-37.45-.38-56.18-.41-.59-7.24,1.1-8.38,1.33-.54-9.52.23-19.04,0-28.56-.05-1.93.46-8.84-.57-9.9-.74-.76-16.96-6.78-19.42-8.38-.12,1.84-.47,10.59-.19,11.24.42.97,15.67,5.96,16.19,6.66.41.57.13,2.22.19,3.05.65,8.38.29,18.14.38,26.66.19,17.83-.14,35.68,0,53.51-6.41.19-12.82.38-19.23.57l-.57-1.14c-.05-13.58.07-27.17,0-40.75,0-2.03.01-4.06,0-6.09-.16-26.62.21-53.37-.38-79.98-.08-3.55.14-7.12,0-10.66-.59-14.79-2.29-29.68-6.09-43.99-1.32-.71-2.17.54-2.29.57-16.33,4.54-52.66,38.95-54.84,60.75-1.22,12.14,1.62,33.26,0,46.65-5.16-1.28-11.59-3.01-16.76-2.67-2.38.16-23.15,4.4-23.61,5.52-.3.73.08,10.36.19,12.38.96.72,20.01-4.96,23.42-5.33.13,0,.26,0,.38,0-.99,1.8,0,3.26,0,3.43,0,1.18,0,2.24,0,3.43,0,.15-.41.44-.38,3.05.02,1.47.37,2.75.38,4.19v13.72c0,.13-.38-.54-.38,2.67,0,1.12.38,2.06.38,3.81,0,.15-.37.42-.38,3.05,0,2.17.38,3.15.38,3.81v14.1c0,.12-.37-.52-.38,2.29v6.47s.12.76-.19.76c-11.1.2-22.22-.15-33.32,0,.72-.73,2.14-.67,2.29-.95.27-.51-.03-9.93,0-11.62.15-8.5-.07-17.02,0-25.52.02-3.05-.03-6.09,0-9.14.3-30.09-5-30.09,21.52-35.8,9.86-2.12,18.09-2,18.47-2.86.72-1.64-.56-30.38,0-35.8,1.85-17.85,23.83-43.43,37.7-54.27,2.38-1.86,5.07-3.71,7.62-5.33,3.62-2.31,12.3-7.21,16-8.38,5.33-1.69,9.66-1.72,12.19,4.19l-.03-.04Z"/>
        <g>
          <path class="cls-12" d="M129.34,123.19c4.35,2.22,15.07,3.78,13.14,6.66-5.93-1.46-15.68-2.9-13.14-6.66Z"/>
          <path class="cls-6" d="M129.34,174.61c6.22,1.54,14.32.92,12.76,4.76-6.67-1.38-14.95-.62-12.76-4.76Z"/>
          <path class="cls-12" d="M129.34,139.95c5.53,2.16,14.59,3.08,12.76,6.28-1.55-.39-16.72-3.12-12.76-6.28Z"/>
          <path class="cls-5" d="M129.72,146.81c5.17,2.46,13.7,2.5,12.38,5.9-6.23-1.24-15.88-2.2-12.38-5.9Z"/>
          <path class="cls-12" d="M129.34,133.1c18.67,4.7,18.43,9.55-.19,2.48l.19-2.48Z"/>
          <path class="cls-6" d="M129.34,154.04c5.92,1.95,14.33,1.84,12.76,5.52-6.31-1.72-14.98-1.55-12.76-5.52Z"/>
          <path class="cls-7" d="M129.34,116.72c5.79,2.48,15.92,4.13,12.57,7.24-5.53-3.05-14.76-3.55-12.57-7.24Z"/>
          <path class="cls-6" d="M129.34,160.9c18.79,3.36,17.81,7.82-.19,2.48l.19-2.48Z"/>
          <path class="cls-10" d="M129.34,167.75c18.37,2.79,18.4,7.12,0,2.67v-2.67Z"/>
          <path class="cls-15" d="M128.96,104.15c4.5,1.66,15,4.7,13.52,7.43-1.81-.73-16.53-4.96-13.52-7.43Z"/>
          <path class="cls-7" d="M129.34,110.24c3.62,2.4,14.91,4.18,13.14,7.43-5.62-2.27-15.94-4.06-13.14-7.43Z"/>
          <path class="cls-10" d="M129.72,181.46c18.18,2.53,18.84,5.68,0,3.05v-3.05Z"/>
          <g>
            <path class="cls-5" d="M36.79,150.62h3.43c3.23,4.83-6.61,4.93-3.43,0Z"/>
            <path class="cls-5" d="M38.7,143.76c2.72-.13,2.06-.06,2.09,3.24-5.42,2.57-5.62-3.07-2.09-3.24Z"/>
            <path class="cls-12" d="M39.84,130.43c4.3,3.12-4.94,6.61-3.62,1.33l3.62-1.33Z"/>
            <path class="cls-6" d="M38.7,157.09c2.51,0,2.12.29,2.09,3.24-6.18,1.65-5.97-3.24-2.09-3.24Z"/>
            <path class="cls-6" d="M36.79,163.94h3.81c2.2,4.32-6.98,4.89-3.81,0Z"/>
            <path class="cls-3" d="M28.41,151.76h3.43c2.24,5.09-6.5,4.79-3.43,0Z"/>
            <path class="cls-5" d="M28.41,164.71h3.43c2.2,5.18-6.35,4.66-3.43,0Z"/>
            <path class="cls-5" d="M29.18,158.23l2.86.57c1.29,5.48-7.9,2.71-2.86-.57Z"/>
            <path class="cls-10" d="M36.41,183.37h4.19c1.93,4.41-6.34,4.42-4.19,0Z"/>
            <path class="cls-10" d="M36.79,176.89h3.81c2.26,4.58-6.92,4.27-3.81,0Z"/>
            <path class="cls-10" d="M28.41,177.27h3.05c3.13,4.79-6.12,4.93-3.05,0Z"/>
            <path class="cls-10" d="M36.79,170.42h3.81c2.26,4.58-6.92,4.27-3.81,0Z"/>
            <path class="cls-3" d="M30.32,145.28c2.72.05,1.85,3.04,1.71,3.24-5.48,1.71-5.7-3.31-1.71-3.24Z"/>
            <path class="cls-12" d="M38.7,137.29c2.64-.12,2.1-.09,2.09,2.86-5.78,2.76-5.41-2.7-2.09-2.86Z"/>
            <path class="cls-12" d="M30.7,138.81l1.33.19c1.32,6.82-9.4,1.91-1.33-.19Z"/>
            <path class="cls-10" d="M28.03,183.75h3.81c2,4.42-5.8,4.44-3.81,0Z"/>
            <path class="cls-12" d="M31.08,132.33c4.13,2.67-4.47,6.3-3.24,1.33l3.24-1.33Z"/>
            <path class="cls-6" d="M28.41,171.18h3.43c2.11,4.41-6.01,4.41-3.43,0Z"/>
          </g>
        </g>
      </g>
      <g>
        <path class="cls-6" d="M59.45,137.29c-.22,17.51.17,35.04,0,52.56-4.69.05-9.44-.08-14.09,0v-6.47c16.24.88,16.67-3.11.38-2.29v-4.57h11.24c1.77-4.28-4.53-2.2-11.24-2.67v-3.81h10.85c2.85-4.64-3.77-2.65-10.85-3.05,0-.66-.39-1.64-.38-3.81,7.56-.52,13.09,1.85,11.24-3.05h-10.85c0-1.74-.38-2.69-.38-3.81l11.81-.38c3.27,1.37.56-15.7,1.52-18.47.1-.29.5-.19.76-.19h-.01Z"/>
        <path class="cls-9" d="M45.36,113.29v12.57c-3.41.37-22.46,6.06-23.42,5.33-.11-2.02-.49-11.65-.19-12.38.46-1.12,21.23-5.36,23.61-5.52h0Z"/>
        <path class="cls-5" d="M62.12,121.67c-4-1.07-2.56,7.44-2.67,15.61-.26,0-.66-.1-.76.19-.97,2.77,1.75,19.85-1.52,18.47,1.32-3.86-4.84-1.79-11.43-2.29v-3.81h10.47c2.84-4.7-3.12-2.62-10.47-3.05v-4.19h11.24c1.87-4.36-4.16-2.17-11.24-2.67,0-1.44-.36-2.72-.38-4.19,7.56-.52,13.09,1.85,11.24-3.05h-10.85c0-1.19,0-2.25,0-3.43,9.5-.74,11.78,1.87,11.81-3.05,0-1.17-.86-.49-.76-1.33.1-.79,5.71-5.93,5.33-3.24v.03Z"/>
        <path class="cls-12" d="M62.12,115.96c1.42.35,2.8.69,4.19,1.14-.45,6.64,1.46,17.77-2.29,15.04.66-1.51-.23-4.61-1.52-5.14-.06-2.27.31-4.88-.38-5.33.38-2.7-5.24,2.44-5.33,3.24-.1.84.77.16.76,1.33-3.21-.45-8.71-.69-11.81-.38-.13,0-.26,0-.38,0v-12.57c5.17-.35,11.59,1.38,16.76,2.67h0Z"/>
        <path class="cls-13" d="M57.55,126.24c-.02,4.91-2.31,2.31-11.81,3.05,0-.17-.99-1.63,0-3.43,3.09-.31,8.6-.06,11.81.38h0Z"/>
        <path class="cls-9" d="M45.74,170.04v-3.05c7.08.4,13.71-1.59,10.85,3.05h-10.85Z"/>
        <path class="cls-9" d="M45.36,163.18c0-2.63.38-2.89.38-3.05h10.85c1.85,4.89-3.68,2.52-11.24,3.05h0Z"/>
        <path class="cls-9" d="M45.36,135.76c-.03-2.61.38-2.89.38-3.05h10.85c1.85,4.89-3.68,2.52-11.24,3.05h0Z"/>
        <path class="cls-9" d="M45.74,149.85v-3.05c7.36.42,13.31-1.65,10.47,3.05h-10.47Z"/>
        <path class="cls-9" d="M45.74,142.62v-2.67c7.08.5,13.11-1.69,11.24,2.67h-11.24Z"/>
        <path class="cls-9" d="M57.17,155.95l-11.81.38c0-3.2.38-2.53.38-2.67,6.59.5,12.74-1.58,11.43,2.29Z"/>
        <path class="cls-2" d="M45.74,176.51v-2.67c6.71.46,13-1.62,11.24,2.67h-11.24Z"/>
        <path class="cls-9" d="M45.36,183.37c0-2.8.38-2.17.38-2.29,16.29-.82,15.85,3.16-.38,2.29Z"/>
        <path class="cls-8" d="M62.12,121.67c.69.46.32,3.07.38,5.33.28,9.86.04,19.83,0,29.71-.03,7.1.12,14.23,0,21.33-.19,11.19,1.47,12.46-2.86,12.57-.31,0-.15-.76-.19-.76.17-17.52-.22-35.04,0-52.56.1-8.18-1.34-16.68,2.67-15.61h0Z"/>
      </g>
      <path class="cls-6" d="M67.07,157.09v9.52c-2.25,2.34,1.26,14.19-2.86,12.95l-1.71-1.52c.12-7.1-.03-14.22,0-21.33,1.54,1.01,2.85.61,4.57.38Z"/>
      <path class="cls-12" d="M116.58,39.03c-.96,18.97-1.14,38.12-.76,57.13.04,2.24-.17,12.15.38,13.14.73,1.3,7.64-.61,8.38.76.62,1.15.32,22.41.38,26.09-3.41.17-4.73,2.03-8.76.76-.16-8.69.12-17.4,0-26.09l-3.05-4.76c-.04-2,.2-9.98,0-10.47-.2-.5-8.26-3.18-9.14-3.24v-4.95c1.32.05,8.63,2.9,9.14,2.09-.34-3.97.46-19.2,0-20.57-.45-1.35-8.02-3.16-9.52-4.38v-4.57c3.15.24,9.37,3.78,9.9,2.48.11-11.86-.39-23.78.76-35.61,0-.04.27.29.38-.76,1.25,4.13.73,8.83,1.9,12.95h.01Z"/>
      <path class="cls-5" d="M101.35,144.52l-.38,8c-6.66-.43-25.98,3.5-33.9,4.57-1.72.23-3.03.63-4.57-.38.04-9.87.28-19.84,0-29.71,1.29.53,2.18,3.64,1.52,5.14,3.74,2.72,1.83-8.41,2.29-15.04h.38c-.25,10.46-.28,21.17.57,31.61,7.61-.6,29.65-4.43,34.09-4.19h0Z"/>
      <g>
        <path class="cls-4" d="M100.97,152.52c2.59.17,10.76,1.67,12.19,3.43-.19,11.43-.38,22.85-.57,34.28-15.11.13-30.21.25-45.32.38-.07-8-.13-16-.19-23.99v-9.52c7.91-1.07,27.24-5.01,33.9-4.57h-.01Z"/>
        <path class="cls-10" d="M100.78,173.47c2.18.05,12.93,1.11,9.14,4.95-13.08-3.34-26.54.48-39.8.95l.19-3.24c7.7-.03,25.89-2.77,30.47-2.67h0Z"/>
        <path class="cls-10" d="M100.78,165.09c1.16.03,6.88,1.78,9.14,1.9v3.43c-13.09-3.99-26.48.95-39.8.95v-2.67c6.29-.61,28.48-3.67,30.66-3.62h0Z"/>
        <path class="cls-6" d="M99.25,157.09c3-.03,13.53.72,10.66,5.33-12.62-4.68-26.69.83-39.8,1.33l.19-3.24c7.55-.17,24.23-3.38,28.94-3.43h0Z"/>
        <path class="cls-10" d="M97.35,181.84c5.69,0,16.28.18,12.57,4.95-12.88-4.1-27.02.5-39.8-.57v-2.29c8.7-.4,18.36-2.1,27.23-2.09Z"/>
      </g>
      <g>
        <path class="cls-8" d="M104.01,92.34c.88.06,8.94,2.74,9.14,3.24s-.04,8.48,0,10.47c.27,13.51-.21,27.05,0,40.56-.53,1.35-9.76-1.99-11.81-2.09-4.44-.24-26.48,3.59-34.09,4.19-.85-10.44-.82-21.15-.57-31.61.14-5.83.53-11.68.57-17.52,6.93-.68,33.51-7.46,36.75-7.24h.01Z"/>
        <g>
          <path class="cls-12" d="M100.2,136.14v3.05c-2.76-.06-23.8,4.66-30.47,4.38v-2.67c6.85-.88,26.16-4.87,30.47-4.76h0Z"/>
          <g>
            <path class="cls-11" d="M101.73,115.96l-1.33,3.43c-7.8,1.53-15.13,1.83-22.85,3.43-.31.07-.07.69-.38.76-.09.02-.47-.7-1.9-.38-.33.07-.15.75-.19.76-4.25.97-7.11,2.45-4-3.05,6.94-.45,26.31-5.24,30.66-4.95h-.01Z"/>
            <path class="cls-12" d="M75.07,123.96s-.14-.69.19-.76c1.43-.32,1.81.4,1.9.38.31-.07.07-.7.38-.76,7.72-1.6,15.05-1.9,22.85-3.43l1.33-3.43c1.61.11,5.89,1.99,8.19,2.29,2.03,8.16-4.86,1.62-9.9,1.52-.48,0-9.08,1.33-9.52,1.52-1.08.48-.31,2.88-.57,3.24-.32.45-3.89.94-3.05-2.29-13.65-.12-4.39,5.57-10.09,5.14-.63-2.15.76-3.85-1.71-3.43h0Z"/>
          </g>
          <g>
            <path class="cls-12" d="M102.49,131.57c-7.09-1.03-24.12,3.95-32.75,4v-2.67c6.82-.97,24.84-4.97,28.94-5.14-.54,5.28,1.2,1.07,3.81,3.81Z"/>
            <path class="cls-5" d="M102.49,131.57c-2.61-2.74-4.35,1.47-3.81-3.81,3.81-.16,7.64,1.4,11.43,2.48.79,5.98-2.43,2.08-7.62,1.33Z"/>
          </g>
          <g>
            <path class="cls-14" d="M100.59,98.06v3.81c-2.95-.14-23.92,4.74-29.52,5.71-2.03.18-1.69-3.04-.38-3.81,1.31-.77,28.38-5.79,29.9-5.71Z"/>
            <path class="cls-12" d="M100.59,101.87v-3.81c1.82.09,6.42,2.58,8.95,2.67,3.02,8.05-4.12,1.37-8.95,1.14Z"/>
          </g>
          <g>
            <path class="cls-15" d="M100.97,107.2v3.43c-1.54-.09-25.35,4.84-30.28,5.71l-.57-3.62c6.39-.81,26.28-5.81,30.85-5.52Z"/>
            <path class="cls-12" d="M100.97,110.63v-3.43c2.93.18,6,1.99,8.95,2.29,2,7.48-4.96,1.37-8.95,1.14Z"/>
          </g>
          <path class="cls-6" d="M100.2,139.19v-3.05c2.06.05,12.41,1.59,9.9,5.14-.59.83-8.54-2.07-9.9-2.09Z"/>
        </g>
      </g>
      <g>
        <path class="cls-8" d="M104.01,87.39c-2.9-.11-30.52,6.26-36.75,7.62-.49-1.97-.89-21.06,0-21.71,1.51-1.11,31.91-6.21,36.37-8.76,1.5,1.22,9.07,3.02,9.52,4.38.46,1.37-.34,16.6,0,20.57-.51.81-7.82-2.04-9.14-2.09h0Z"/>
        <path class="cls-13" d="M104.01,79.02l.38,3.43c-1.74-.1-29.15,6.38-34.09,7.24-.78-.27-.95-3.17,0-3.81,6.42-.56,30.83-7,33.71-6.86Z"/>
        <path class="cls-13" d="M103.63,70.64v3.05c-1.74,0-28.64,7.55-33.9,7.43v-3.05c5.97-.78,30.31-7.67,33.9-7.43Z"/>
        <path class="cls-11" d="M103.63,73.68v-3.05c2.17.15,4.59,1.6,6.66,2.29,1.62,6.53-3.86.77-6.66.76Z"/>
        <path class="cls-12" d="M104.39,82.44l-.38-3.43c1.35.07,4.68,1.71,6.47,2.09.97,6.1-3.21,1.5-6.09,1.33h0Z"/>
      </g>
      <g>
        <path class="cls-8" d="M114.3,26.84c-1.15,11.83-.65,23.75-.76,35.61-.53,1.31-6.76-2.24-9.9-2.48-3.56-.27-27.11,6.48-32.94,7.62l-.95-.57c10.69-15.27,27.7-32.29,44.56-40.18h0Z"/>
        <path class="cls-13" d="M104.01,50.83v3.43c-1.23-.08-20.32,6.12-23.8,6.47l-.57-2.48c.49-1.19,23.1-7.54,24.37-7.43h0Z"/>
        <path class="cls-14" d="M104.01,41.69l.38,3.81c-3.17-.12-13.59,7.26-11.43.95.27-.8,10.11-4.76,11.04-4.76h.01Z"/>
        <path class="cls-11" d="M104.01,54.26v-3.43c2.6.22,8.34,2.68,6.47,5.9-.51.88-6.13-2.45-6.47-2.48h0Z"/>
        <path class="cls-12" d="M104.39,45.5l-.38-3.81c1.41,0,4.75,2.05,6.47,2.48,1.02,7.4-2.74,1.46-6.09,1.33Z"/>
      </g>
    </g>
  </g>
</svg>