<?xml version="1.0" encoding="UTF-8"?>
<svg id="Layer_2" data-name="Layer 2" xmlns="http://www.w3.org/2000/svg" viewBox="0 0 19.08 19.22">
  <defs>
    <style>
      .cls-1 {
        fill: #05a2cc;
      }

      .cls-1, .cls-2, .cls-3, .cls-4, .cls-5, .cls-6, .cls-7, .cls-8, .cls-9, .cls-10, .cls-11, .cls-12 {
        stroke-width: 0px;
      }

      .cls-2 {
        fill: #7d6b67;
      }

      .cls-3 {
        fill: #055d7c;
      }

      .cls-4 {
        fill: #3f2f2f;
      }

      .cls-5 {
        fill: #004d68;
      }

      .cls-6 {
        fill: #ffc988;
      }

      .cls-7 {
        fill: #635552;
      }

      .cls-8 {
        fill: #f4b867;
      }

      .cls-9 {
        fill: #bcfaff;
      }

      .cls-10 {
        fill: #022616;
      }

      .cls-11 {
        fill: #2382a3;
      }

      .cls-12 {
        fill: #02331e;
      }
    </style>
  </defs>
  <g id="Layer_1-2" data-name="Layer 1">
    <g>
      <g>
        <g>
          <polygon class="cls-6" points="8.16 7.56 8.16 10.69 10.91 10.69 10.91 9.4 10.41 9.92 8.16 7.56"/>
          <path class="cls-8" d="M9.6,8.18c-.54,0-1.04-.23-1.43-.62h0s2.25,2.37,2.25,2.37l.5-.52v-1.74c-.37.33-.83.52-1.32.52Z"/>
        </g>
        <polygon class="cls-9" points="7.97 8.18 9.57 9.1 11.13 8.18 12.5 9.17 9.54 13.15 6.74 9.04 7.97 8.18"/>
        <path class="cls-6" d="M11.88,6.05s-.03,0-.05-.02l-.04-.03v.05c-.25,1.25-1.15,2.12-2.2,2.12s-1.95-.87-2.19-2.12v-.05s-.05.03-.05.03c-.01.01-.03.02-.04.02h0c-.18,0-.52-.52-.56-1.08-.04-.64-.03-1,.04-1.07,0,0,.01,0,.01,0,.06,0,.16.08.25.21l.1.15-.05-.18c-.06-.21-.09-.39-.09-.56,0-1.59,1.15-2.89,2.56-2.89s2.57,1.3,2.57,2.89c0,.17-.03.35-.09.56l-.05.18.1-.15c.09-.13.19-.21.25-.21,0,0,0,0,.02,0,.07.07.08.43.04,1.07-.04.56-.37,1.08-.55,1.08Z"/>
        <path class="cls-4" d="M9.54,2.36c.49.03.86-.17,1.23-.19.37-.02.62.39.81.82.31.74.08,1.61.45,1.26.37-.35,0-2.09,0-2.09,0,0-.41-1.47-1.69-1.63-1.28-.15-2.65.17-3.1,1.52-.46,1.35-.21,2.02-.06,2.19.15.17.22-.22.42-1.07.2-.86.45-1.17.79-1.11.33.07.48.24,1.17.28Z"/>
        <g>
          <polygon class="cls-10" points="10.11 9.34 9.58 8.99 9.58 13.79 9.58 13.79 10.3 12.69 9.88 9.94 10.11 9.34"/>
          <polygon class="cls-12" points="9.56 8.99 9.55 8.99 9.55 8.99 9.08 9.33 9.28 9.94 8.86 12.69 9.58 13.79 9.58 13.79 9.58 8.99 9.56 8.99"/>
        </g>
        <polygon class="cls-11" points="9.54 17.13 9.54 13.15 11.95 8.78 15.96 10.48 17.1 17.13 9.54 17.13"/>
        <polygon class="cls-1" points="9.54 17.13 9.54 13.15 7.12 8.78 3.12 10.48 1.98 17.13 9.54 17.13"/>
        <polygon class="cls-1" points="12.87 9.15 11.95 8.78 9.54 13.15 11.36 11.67 11.35 10.97 12.05 10.97 12.87 9.15"/>
        <polygon class="cls-11" points="6.2 9.15 7.12 8.78 9.54 13.15 7.71 11.67 7.73 10.97 7.03 10.97 6.2 9.15"/>
      </g>
      <path class="cls-3" d="M4.78,16.82c.02.17.21.31.42.31h8.52c.21,0,.39-.14.42-.31l.73-5.23c.02-.17-.12-.31-.33-.31H4.38c-.21,0-.36.14-.33.31l.73,5.23Z"/>
      <rect class="cls-5" y="17.13" width="19.08" height="2.09"/>
      <g>
        <path class="cls-2" d="M6.22,5.12h.41v-2.46c0-1.25,1.13-2.27,2.53-2.27h.91c1.4,0,2.53,1.02,2.53,2.27v2.46h.41v-2.46c0-1.47-1.32-2.66-2.94-2.66h-.91c-1.62,0-2.94,1.19-2.94,2.66v2.46Z"/>
        <path class="cls-7" d="M13.18,3.81v1.72c0,.38-.97.7-1.38.7v-3.12c.41,0,1.38.32,1.38.7Z"/>
        <path class="cls-7" d="M6.05,3.81v1.72c0,.38.96.7,1.37.7v-3.12c-.41,0-1.37.32-1.37.7Z"/>
      </g>
    </g>
  </g>
</svg>